<?xml version="1.0" standalone="no"?>
<!DOCTYPE svg PUBLIC "-//W3C//DTD SVG 20010904//EN"
 "http://www.w3.org/TR/2001/REC-SVG-20010904/DTD/svg10.dtd">
<svg version="1.0" xmlns="http://www.w3.org/2000/svg"
 width="100.000000pt" height="100.000000pt" viewBox="0 0 100.000000 100.000000"
 preserveAspectRatio="xMidYMid meet">

<g transform="translate(0.000000,100.000000) scale(0.100000,-0.100000)"
fill="#000000" stroke="none">
<path d="M740 895 c-23 -19 -48 -35 -55 -35 -23 0 -55 -51 -55 -87 0 -32 -2
-35 -23 -29 -13 3 -39 1 -58 -4 -29 -9 -58 -2 -221 52 -137 46 -191 59 -199
51 -8 -8 53 -32 228 -90 223 -75 238 -81 238 -104 0 -22 -4 -24 -62 -27 -59
-3 -63 -5 -63 -27 0 -31 51 -81 88 -87 45 -6 88 10 117 44 22 26 26 39 23 80
-1 26 -3 48 -2 48 0 0 21 -7 47 -16 66 -22 101 -16 105 19 2 16 -3 48 -12 72
-16 48 -15 49 27 59 35 8 36 36 1 36 -14 0 -33 -4 -42 -9 -12 -6 -24 -4 -39 9
-27 21 -15 36 35 46 44 9 42 34 -2 34 -24 0 -46 -10 -76 -35z"/>
<path d="M376 535 c-18 -14 -18 -15 8 -49 52 -68 122 -106 197 -106 27 0 39 4
39 14 0 32 -13 46 -43 46 -46 0 -115 38 -140 76 -24 37 -33 40 -61 19z"/>
<path d="M304 423 c-7 -34 -4 -40 35 -74 49 -44 113 -75 183 -90 48 -11 53
-10 70 11 10 12 18 26 18 30 0 4 -24 10 -52 14 -73 9 -148 48 -197 101 -23 25
-43 45 -46 45 -2 0 -7 -17 -11 -37z"/>
<path d="M300 274 c0 -48 14 -66 71 -95 32 -16 65 -29 74 -29 13 0 55 33 55
43 0 2 -19 9 -42 16 -42 12 -76 29 -131 66 -26 17 -27 17 -27 -1z"/>
<path d="M410 85 c7 -8 16 -15 21 -15 5 0 9 7 9 15 0 9 -9 15 -21 15 -18 0
-19 -2 -9 -15z"/>
</g>
</svg>
